# xmcd
#
# Track frame offsets:
#	150
#	19003
#	34382
#	67386
#	88527
#	103304
#	120216
#	134798
#	167756
#	200531
#	226796
#	250188
#	273601
#
# Disc length: 4025
#
# Revision: 6
# Processed by: cddbd v1.5.1PL0 Copyright (c) Steve Scherf et al.
# Submitted via: ExactAudioCopy v0.90b4
# Normalized: r5:DSETVAR1
#
DISCID=bd0fb70d
DTITLE=Various Artist - Spiegel Jazz Edition Vol.9 - Ballads
DYEAR=1998
DGENRE=Jazz
TTITLE0=Benny Carter - Body and Soul
TTITLE1=Lester Young - These Foolish Things
TTITLE2=Clifford Brown - I Don't stand a Ghost of a Chance
TTITLE3=Ben Webster - Over the Rainbow
TTITLE4=Billie Holiday - Lover Man
TTITLE5=John Coltrane - What's new
TTITLE6=Stan Getz - Moonlight in Vermont
TTITLE7=Gerry Mulligan and Ben Webster - Chelsea Bridge
TTITLE8=Paul Desmond - Poor Butterfly
TTITLE9=Art Blakey - I Remember Clifford
TTITLE10=Eddie 'Lockjaw' Davis and Paul Gonsalves - Just Friends
TTITLE11=Sonny Rollins - Where are you
TTITLE12=Roy Hargrove - You don't know what Love is
EXTD=
EXTT0=
EXTT1=
EXTT2=
EXTT3=
EXTT4=
EXTT5=
EXTT6=
EXTT7=
EXTT8=
EXTT9=
EXTT10=
EXTT11=
EXTT12=
PLAYORDER=
